<?xml version="1.0" encoding="UTF-8"?>
<svg version="1.1" xmlns="http://www.w3.org/2000/svg" width="430" height="430">
<path d="M0 0 C141.9 0 283.8 0 430 0 C430 141.9 430 283.8 430 430 C288.1 430 146.2 430 0 430 C0 288.1 0 146.2 0 0 Z " fill="#FBFBFB" transform="translate(0,0)"/>
<path d="M0 0 C9.57 0 19.14 0 29 0 C29 9.24 29 18.48 29 28 C42.86 28 56.72 28 71 28 C71 42.19 71 56.38 71 71 C75.95 71 80.9 71 86 71 C86 75.62 86 80.24 86 85 C81.05 85 76.1 85 71 85 C71 94.57 71 104.14 71 114 C75.95 114 80.9 114 86 114 C86 118.62 86 123.24 86 128 C90.62 128 95.24 128 100 128 C100 118.43 100 108.86 100 99 C104.62 99 109.24 99 114 99 C114 94.38 114 89.76 114 85 C109.38 85 104.76 85 100 85 C100 80.38 100 75.76 100 71 C104.62 71 109.24 71 114 71 C114 66.38 114 61.76 114 57 C123.57 57 133.14 57 143 57 C143 52.05 143 47.1 143 42 C147.62 42 152.24 42 157 42 C157 37.38 157 32.76 157 28 C161.62 28 166.24 28 171 28 C171 37.57 171 47.14 171 57 C166.38 57 161.76 57 157 57 C157 61.62 157 66.24 157 71 C166.24 71 175.48 71 185 71 C185 80.24 185 89.48 185 99 C180.38 99 175.76 99 171 99 C171 103.95 171 108.9 171 114 C166.38 114 161.76 114 157 114 C157 118.62 157 123.24 157 128 C161.62 128 166.24 128 171 128 C171 132.62 171 137.24 171 142 C175.62 142 180.24 142 185 142 C185 137.38 185 132.76 185 128 C189.95 128 194.9 128 200 128 C200 123.38 200 118.76 200 114 C204.62 114 209.24 114 214 114 C214 118.62 214 123.24 214 128 C223.24 128 232.48 128 242 128 C242 132.62 242 137.24 242 142 C228.14 142 214.28 142 200 142 C200 146.62 200 151.24 200 156 C213.86 156 227.72 156 242 156 C242 160.95 242 165.9 242 171 C251.57 171 261.14 171 271 171 C271 175.62 271 180.24 271 185 C280.24 185 289.48 185 299 185 C299 194.24 299 203.48 299 213 C294.38 213 289.76 213 285 213 C285 227.19 285 241.38 285 256 C280.38 256 275.76 256 271 256 C271 270.19 271 284.38 271 299 C280.24 299 289.48 299 299 299 C299 303.62 299 308.24 299 313 C294.38 313 289.76 313 285 313 C285 317.62 285 322.24 285 327 C280.38 327 275.76 327 271 327 C271 322.38 271 317.76 271 313 C266.38 313 261.76 313 257 313 C257 322.57 257 332.14 257 342 C266.24 342 275.48 342 285 342 C285 351.24 285 360.48 285 370 C289.62 370 294.24 370 299 370 C299 374.62 299 379.24 299 384 C294.38 384 289.76 384 285 384 C285 393.57 285 403.14 285 413 C280.38 413 275.76 413 271 413 C271 403.43 271 393.86 271 384 C266.38 384 261.76 384 257 384 C257 379.38 257 374.76 257 370 C247.43 370 237.86 370 228 370 C228 379.24 228 388.48 228 398 C223.38 398 218.76 398 214 398 C214 384.14 214 370.28 214 356 C209.38 356 204.76 356 200 356 C200 369.86 200 383.72 200 398 C195.05 398 190.1 398 185 398 C185 402.95 185 407.9 185 413 C180.38 413 175.76 413 171 413 C171 403.43 171 393.86 171 384 C166.38 384 161.76 384 157 384 C157 393.57 157 403.14 157 413 C147.43 413 137.86 413 128 413 C128 398.81 128 384.62 128 370 C142.19 370 156.38 370 171 370 C171 355.81 171 341.62 171 327 C166.38 327 161.76 327 157 327 C157 322.38 157 317.76 157 313 C152.38 313 147.76 313 143 313 C143 308.38 143 303.76 143 299 C152.24 299 161.48 299 171 299 C171 294.38 171 289.76 171 285 C166.38 285 161.76 285 157 285 C157 275.43 157 265.86 157 256 C166.24 256 175.48 256 185 256 C185 251.38 185 246.76 185 242 C180.38 242 175.76 242 171 242 C171 237.38 171 232.76 171 228 C166.38 228 161.76 228 157 228 C157.89268159 219.58328782 157.89268159 219.58328782 158.51171875 216.21875 C160.6842617 201.8973469 158.82448928 188.62638142 152.33203125 175.671875 C151 173 151 173 151 171 C152.98 171 154.96 171 157 171 C157 161.43 157 151.86 157 142 C147.43 142 137.86 142 128 142 C128 132.76 128 123.52 128 114 C123.38 114 118.76 114 114 114 C114 123.24 114 132.48 114 142 C109.71 141.34 105.42 140.68 101 140 C90.89205741 139.33420737 81.64469606 139.69629196 72 143 C71.00484375 143.3403125 70.0096875 143.680625 68.984375 144.03125 C63.44814103 146.13217982 59.43934464 148.39257946 55 152.3125 C47.47308586 158.23841615 38.04872942 156.63810824 29 156 C29 160.95 29 165.9 29 171 C14.81 171 0.62 171 -14 171 C-14 166.05 -14 161.1 -14 156 C-18.62 156 -23.24 156 -28 156 C-28 151.38 -28 146.76 -28 142 C-23.38 142 -18.76 142 -14 142 C-14 137.38 -14 132.76 -14 128 C-23.57 128 -33.14 128 -43 128 C-43 123.38 -43 118.76 -43 114 C-28.81 114 -14.62 114 0 114 C0 127.86 0 141.72 0 156 C4.62 156 9.24 156 14 156 C14 146.76 14 137.52 14 128 C18.95 128 23.9 128 29 128 C29 132.62 29 137.24 29 142 C33.62 142 38.24 142 43 142 C43 127.81 43 113.62 43 99 C47.62 99 52.24 99 57 99 C57 80.19 57 61.38 57 42 C52.38 42 47.76 42 43 42 C43 51.57 43 61.14 43 71 C33.43 71 23.86 71 14 71 C14 66.38 14 61.76 14 57 C18.95 57 23.9 57 29 57 C29 52.05 29 47.1 29 42 C24.05 42 19.1 42 14 42 C14 37.38 14 32.76 14 28 C9.38 28 4.76 28 0 28 C0 18.76 0 9.52 0 0 Z " fill="#040404" transform="translate(121,9)"/>
<path d="M0 0 C9.24 0 18.48 0 28 0 C28 9.24 28 18.48 28 28 C32.62 28 37.24 28 42 28 C42 37.57 42 47.14 42 57 C65.76 57 89.52 57 114 57 C114 52.05 114 47.1 114 42 C115.97419922 42.0309375 115.97419922 42.0309375 117.98828125 42.0625 C127.84905555 42.02212547 134.66095179 41.87172269 142.36328125 35.13671875 C152.22453104 27.1454541 165.00742843 24.90378672 177.3125 24.6875 C178.30697144 24.66067139 178.30697144 24.66067139 179.3215332 24.63330078 C186.42646122 24.64519472 191.63319707 26.29996855 199 28 C199 18.76 199 9.52 199 0 C203.62 0 208.24 0 213 0 C213 9.24 213 18.48 213 28 C222.57 28 232.14 28 242 28 C242 37.57 242 47.14 242 57 C240.02 57 238.04 57 236 57 C236.31453125 57.55945313 236.6290625 58.11890625 236.953125 58.6953125 C246.75041536 77.05047697 246.63623023 94.29602154 242 114 C246.62 114 251.24 114 256 114 C256 118.62 256 123.24 256 128 C260.62 128 265.24 128 270 128 C270 132.62 270 137.24 270 142 C260.76 142 251.52 142 242 142 C242 151.57 242 161.14 242 171 C246.62 171 251.24 171 256 171 C256 175.62 256 180.24 256 185 C246.76 185 237.52 185 228 185 C228 189.62 228 194.24 228 199 C232.62 199 237.24 199 242 199 C242 213.19 242 227.38 242 242 C237.38 242 232.76 242 228 242 C228 232.43 228 222.86 228 213 C223.05 213 218.1 213 213 213 C213 208.38 213 203.76 213 199 C208.38 199 203.76 199 199 199 C199 208.57 199 218.14 199 228 C180.19 228 161.38 228 142 228 C142 232.62 142 237.24 142 242 C137.38 242 132.76 242 128 242 C128 227.81 128 213.62 128 199 C123.38 199 118.76 199 114 199 C114 203.62 114 208.24 114 213 C109.05 213 104.1 213 99 213 C99 217.95 99 222.9 99 228 C94.38 228 89.76 228 85 228 C85 213.81 85 199.62 85 185 C70.81 185 56.62 185 42 185 C42 175.43 42 165.86 42 156 C46.95 156 51.9 156 57 156 C57 151.38 57 146.76 57 142 C47.43 142 37.86 142 28 142 C28 151.57 28 161.14 28 171 C23.38 171 18.76 171 14 171 C14 166.05 14 161.1 14 156 C9.38 156 4.76 156 0 156 C0 151.38 0 146.76 0 142 C4.62 142 9.24 142 14 142 C14 132.76 14 123.52 14 114 C9.38 114 4.76 114 0 114 C0 109.05 0 104.1 0 99 C4.62 99 9.24 99 14 99 C14 85.14 14 71.28 14 57 C4.43 57 -5.14 57 -15 57 C-15 52.05 -15 47.1 -15 42 C-5.43 42 4.14 42 14 42 C14 32.76 14 23.52 14 14 C9.38 14 4.76 14 0 14 C0 9.38 0 4.76 0 0 Z " fill="#F9F9F9" transform="translate(36,123)"/>
<path d="M0 0 C9.57 0 19.14 0 29 0 C29 9.24 29 18.48 29 28 C42.86 28 56.72 28 71 28 C71 42.19 71 56.38 71 71 C75.95 71 80.9 71 86 71 C86 75.62 86 80.24 86 85 C81.05 85 76.1 85 71 85 C71 94.57 71 104.14 71 114 C75.95 114 80.9 114 86 114 C86 118.62 86 123.24 86 128 C90.62 128 95.24 128 100 128 C100 118.43 100 108.86 100 99 C104.62 99 109.24 99 114 99 C114 94.38 114 89.76 114 85 C109.38 85 104.76 85 100 85 C100 80.38 100 75.76 100 71 C104.62 71 109.24 71 114 71 C114 66.38 114 61.76 114 57 C123.57 57 133.14 57 143 57 C143 52.05 143 47.1 143 42 C147.62 42 152.24 42 157 42 C157 37.38 157 32.76 157 28 C161.62 28 166.24 28 171 28 C171 37.57 171 47.14 171 57 C166.38 57 161.76 57 157 57 C157 61.62 157 66.24 157 71 C152.38 71 147.76 71 143 71 C143 75.62 143 80.24 143 85 C138.05 85 133.1 85 128 85 C128 94.57 128 104.14 128 114 C123.38 114 118.76 114 114 114 C114 123.24 114 132.48 114 142 C109.71 141.34 105.42 140.68 101 140 C90.89205741 139.33420737 81.64469606 139.69629196 72 143 C71.00484375 143.3403125 70.0096875 143.680625 68.984375 144.03125 C63.44814103 146.13217982 59.43934464 148.39257946 55 152.3125 C47.47308586 158.23841615 38.04872942 156.63810824 29 156 C29 160.95 29 165.9 29 171 C14.81 171 0.62 171 -14 171 C-14 166.05 -14 161.1 -14 156 C-18.62 156 -23.24 156 -28 156 C-28 151.38 -28 146.76 -28 142 C-23.38 142 -18.76 142 -14 142 C-14 137.38 -14 132.76 -14 128 C-23.57 128 -33.14 128 -43 128 C-43 123.38 -43 118.76 -43 114 C-28.81 114 -14.62 114 0 114 C0 127.86 0 141.72 0 156 C4.62 156 9.24 156 14 156 C14 146.76 14 137.52 14 128 C18.95 128 23.9 128 29 128 C29 132.62 29 137.24 29 142 C33.62 142 38.24 142 43 142 C43 127.81 43 113.62 43 99 C47.62 99 52.24 99 57 99 C57 80.19 57 61.38 57 42 C52.38 42 47.76 42 43 42 C43 51.57 43 61.14 43 71 C33.43 71 23.86 71 14 71 C14 66.38 14 61.76 14 57 C18.95 57 23.9 57 29 57 C29 52.05 29 47.1 29 42 C24.05 42 19.1 42 14 42 C14 37.38 14 32.76 14 28 C9.38 28 4.76 28 0 28 C0 18.76 0 9.52 0 0 Z " fill="#050505" transform="translate(121,9)"/>
<path d="M0 0 C33 0 66 0 100 0 C100 33 100 66 100 100 C67 100 34 100 0 100 C0 67 0 34 0 0 Z " fill="#F9F9F9" transform="translate(7,322)"/>
<path d="M0 0 C33 0 66 0 100 0 C100 32.67 100 65.34 100 99 C67 99 34 99 0 99 C0 66.33 0 33.66 0 0 Z " fill="#F9F9F9" transform="translate(7,9)"/>
<path d="M0 0 C32.67 0 65.34 0 99 0 C99 32.67 99 65.34 99 99 C66.33 99 33.66 99 0 99 C0 66.33 0 33.66 0 0 Z " fill="#F9F9F9" transform="translate(321,9)"/>
<path d="M0 0 C10.77501398 7.38143192 17.89860435 16.91959773 21.125 29.6875 C21.55349066 32.78515783 21.65018384 35.81276615 21.625 38.9375 C21.62000488 39.76233887 21.61500977 40.58717773 21.60986328 41.43701172 C21.24149656 54.48735543 15.36008466 65.92040637 6 74.875 C-4.46894641 83.71975911 -15.72837804 87.18966537 -29.1875 87.015625 C-36.14016891 86.39695531 -43.03833558 84.57860961 -48.875 80.6875 C-55.90714556 80.04821404 -62.1296863 81.79881216 -68.875 83.6875 C-68.56628878 81.89517663 -68.25290936 80.10365679 -67.9375 78.3125 C-67.76347656 77.31476563 -67.58945313 76.31703125 -67.41015625 75.2890625 C-66.875 72.6875 -66.875 72.6875 -65.875 70.6875 C-65.29266554 65.79589051 -66.5681407 63.04476359 -68.78515625 58.87109375 C-74.24270636 47.93643241 -74.18381235 36.16117259 -70.91796875 24.5390625 C-66.64464423 12.85544115 -58.56602738 3.85128259 -47.875 -2.3125 C-44.27285964 -3.8917165 -40.64397283 -5.19264545 -36.875 -6.3125 C-36.24207031 -6.50457031 -35.60914063 -6.69664062 -34.95703125 -6.89453125 C-22.61971698 -9.37125288 -10.59324536 -6.41664521 0 0 Z " fill="#FBFBFB" transform="translate(239.875,175.3125)"/>
<path d="M0 0 C9.24 0 18.48 0 28 0 C28 9.24 28 18.48 28 28 C32.62 28 37.24 28 42 28 C42 37.57 42 47.14 42 57 C51.57 57 61.14 57 71 57 C71 61.62 71 66.24 71 71 C61.43 71 51.86 71 42 71 C42 75.62 42 80.24 42 85 C37.38 85 32.76 85 28 85 C28 89.62 28 94.24 28 99 C32.62 99 37.24 99 42 99 C42 108.57 42 118.14 42 128 C46.95 128 51.9 128 57 128 C57 132.62 57 137.24 57 142 C47.43 142 37.86 142 28 142 C28 151.57 28 161.14 28 171 C23.38 171 18.76 171 14 171 C14 166.05 14 161.1 14 156 C9.38 156 4.76 156 0 156 C0 151.38 0 146.76 0 142 C4.62 142 9.24 142 14 142 C14 132.76 14 123.52 14 114 C9.38 114 4.76 114 0 114 C0 109.05 0 104.1 0 99 C4.62 99 9.24 99 14 99 C14 85.14 14 71.28 14 57 C4.43 57 -5.14 57 -15 57 C-15 52.05 -15 47.1 -15 42 C-5.43 42 4.14 42 14 42 C14 32.76 14 23.52 14 14 C9.38 14 4.76 14 0 14 C0 9.38 0 4.76 0 0 Z " fill="#040404" transform="translate(36,123)"/>
<path d="M0 0 C33 0 66 0 100 0 C100 33 100 66 100 100 C67 100 34 100 0 100 C0 67 0 34 0 0 Z M14 14 C14 37.43 14 60.86 14 85 C37.76 85 61.52 85 86 85 C86 61.57 86 38.14 86 14 C62.24 14 38.48 14 14 14 Z " fill="#050505" transform="translate(7,322)"/>
<path d="M0 0 C33 0 66 0 100 0 C100 32.67 100 65.34 100 99 C67 99 34 99 0 99 C0 66.33 0 33.66 0 0 Z M14 14 C14 37.43 14 60.86 14 85 C37.76 85 61.52 85 86 85 C86 61.57 86 38.14 86 14 C62.24 14 38.48 14 14 14 Z " fill="#050505" transform="translate(7,9)"/>
<path d="M0 0 C32.67 0 65.34 0 99 0 C99 32.67 99 65.34 99 99 C66.33 99 33.66 99 0 99 C0 66.33 0 33.66 0 0 Z M14 14 C14 37.43 14 60.86 14 85 C37.43 85 60.86 85 85 85 C85 61.57 85 38.14 85 14 C61.57 14 38.14 14 14 14 Z " fill="#060606" transform="translate(321,9)"/>
<path d="M0 0 C16.10152401 -0.53035323 30.87757392 4.31193555 43.21484375 14.77734375 C54.70561355 25.87830867 61.2918992 40.47724837 61.65234375 56.40234375 C61.37438449 71.89085158 56.49424696 86.8147112 45.55859375 98.12890625 C32.138082 110.36803493 17.35649629 115.83734996 -0.640625 115.41015625 C-7.23141488 115.09966936 -13.79559767 113.88615552 -19.48046875 110.4453125 C-23.69699162 108.73073133 -26.70116118 109.58633173 -30.91015625 110.77734375 C-31.65942383 110.97102539 -32.40869141 111.16470703 -33.18066406 111.36425781 C-38.02574107 112.63465165 -42.83652236 114.03212222 -47.58203125 115.63671875 C-49.99718125 116.23596649 -52.18133941 116.23901567 -54.66015625 116.15234375 C-54.25483312 111.58179208 -53.54188802 107.46920263 -52.14453125 103.09375 C-51.72300781 101.77213867 -51.72300781 101.77213867 -51.29296875 100.42382812 C-50.70405675 98.61670213 -50.09982673 96.81449698 -49.48046875 95.01757812 C-47.37977889 88.29831548 -47.94642487 84.53599688 -50.66015625 78.15234375 C-55.99325526 61.10657509 -55.59107174 47.6431781 -48.09765625 31.02734375 C-40.13731638 16.00896954 -26.73946663 6.1109956 -10.66015625 1.15234375 C-7.11499376 0.29617749 -3.63593617 0.20822542 0 0 Z M-25.66015625 21.15234375 C-26.26214844 21.56871094 -26.86414063 21.98507813 -27.484375 22.4140625 C-35.87017261 28.68927734 -41.22400283 39.00912315 -43.2578125 49.125 C-44.90585558 61.52532413 -43.18427982 72.3829454 -36.66015625 83.15234375 C-35.92540618 88.29559425 -37.60325952 92.88723973 -39.1015625 97.76171875 C-39.92793846 100.14927416 -39.92793846 100.14927416 -38.66015625 102.15234375 C-37.95890625 101.93578125 -37.25765625 101.71921875 -36.53515625 101.49609375 C-27.8522268 98.94784272 -21.82144961 97.67312613 -13.63671875 102.12890625 C-4.40168832 106.9106809 7.27639874 106.29457016 17.02734375 103.58984375 C28.78560411 99.48945405 38.80697443 92.30929196 44.9375 81.27734375 C46.18788679 78.59429804 47.31690243 75.92948564 48.33984375 73.15234375 C48.70335937 72.24097656 49.066875 71.32960937 49.44140625 70.390625 C52.65608861 58.80379164 51.11433661 45.59309346 45.33984375 35.15234375 C38.08170984 23.66617068 27.47906401 15.77097786 14.46484375 11.77734375 C-0.12418696 8.87766063 -13.99906648 12.06727381 -25.66015625 21.15234375 Z " fill="#060606" transform="translate(210.66015625,156.84765625)"/>
<path d="M0 0 C9.57 0 19.14 0 29 0 C29 14.19 29 28.38 29 43 C19.43 43 9.86 43 0 43 C0 47.62 0 52.24 0 57 C-4.62 57 -9.24 57 -14 57 C-14 61.62 -14 66.24 -14 71 C-9.38 71 -4.76 71 0 71 C0 75.62 0 80.24 0 85 C-4.62 85 -9.24 85 -14 85 C-14 94.57 -14 104.14 -14 114 C-18.62 114 -23.24 114 -28 114 C-28 109.38 -28 104.76 -28 100 C-32.95 100 -37.9 100 -43 100 C-43 90.43 -43 80.86 -43 71 C-38.05 71 -33.1 71 -28 71 C-28 56.81 -28 42.62 -28 28 C-18.76 28 -9.52 28 0 28 C0 18.76 0 9.52 0 0 Z " fill="#060606" transform="translate(235,23)"/>
<path d="M0 0 C13.86 0 27.72 0 42 0 C42 4.62 42 9.24 42 14 C46.95 14 51.9 14 57 14 C57 23.24 57 32.48 57 42 C61.62 42 66.24 42 71 42 C71 51.57 71 61.14 71 71 C66.38 71 61.76 71 57 71 C57 66.38 57 61.76 57 57 C47.43 57 37.86 57 28 57 C28 52.05 28 47.1 28 42 C18.76 42 9.52 42 0 42 C0 37.38 0 32.76 0 28 C-9.57 28 -19.14 28 -29 28 C-29 23.38 -29 18.76 -29 14 C-19.43 14 -9.86 14 0 14 C0 9.38 0 4.76 0 0 Z " fill="#F9F9F9" transform="translate(321,180)"/>
<path d="M0 0 C9.57 0 19.14 0 29 0 C29 4.62 29 9.24 29 14 C38.24 14 47.48 14 57 14 C57 18.62 57 23.24 57 28 C61.29 28 65.58 28 70 28 C71.11754936 33.23851264 72 37.62585403 72 43 C67.05 43 62.1 43 57 43 C57 47.62 57 52.24 57 57 C52.38 57 47.76 57 43 57 C43 52.38 43 47.76 43 43 C38.38 43 33.76 43 29 43 C29 47.62 29 52.24 29 57 C19.43 57 9.86 57 0 57 C0 47.43 0 37.86 0 28 C-4.62 28 -9.24 28 -14 28 C-14 23.38 -14 18.76 -14 14 C-9.38 14 -4.76 14 0 14 C0 9.38 0 4.76 0 0 Z " fill="#F9F9F9" transform="translate(78,194)"/>
<path d="M0 0 C14.19 0 28.38 0 43 0 C43 13.86 43 27.72 43 42 C38.38 42 33.76 42 29 42 C29 51.57 29 61.14 29 71 C19.43 71 9.86 71 0 71 C0 47.57 0 24.14 0 0 Z " fill="#060606" transform="translate(7,180)"/>
<path d="M0 0 C4.62 0 9.24 0 14 0 C14 9.24 14 18.48 14 28 C9.38 28 4.76 28 0 28 C0 37.57 0 47.14 0 57 C-18.81 57 -37.62 57 -57 57 C-57 61.62 -57 66.24 -57 71 C-61.62 71 -66.24 71 -71 71 C-71 56.81 -71 42.62 -71 28 C-61.76 28 -52.52 28 -43 28 C-43 32.62 -43 37.24 -43 42 C-38.05 42 -33.1 42 -28 42 C-28 37.38 -28 32.76 -28 28 C-23.38 28 -18.76 28 -14 28 C-14 23.38 -14 18.76 -14 14 C-9.38 14 -4.76 14 0 14 C0 9.38 0 4.76 0 0 Z " fill="#040404" transform="translate(235,294)"/>
<path d="M0 0 C13.86 0 27.72 0 42 0 C42 9.57 42 19.14 42 29 C37.38 29 32.76 29 28 29 C28 33.62 28 38.24 28 43 C13.81 43 -0.38 43 -15 43 C-15 33.43 -15 23.86 -15 14 C-10.05 14 -5.1 14 0 14 C0 9.38 0 4.76 0 0 Z " fill="#060606" transform="translate(93,265)"/>
<path d="M0 0 C13.86 0 27.72 0 42 0 C42 9.24 42 18.48 42 28 C37.38 28 32.76 28 28 28 C28 32.95 28 37.9 28 43 C13.81 43 -0.38 43 -15 43 C-15 33.43 -15 23.86 -15 14 C-10.05 14 -5.1 14 0 14 C0 9.38 0 4.76 0 0 Z " fill="#090909" transform="translate(264,80)"/>
<path d="M0 0 C14.19 0 28.38 0 43 0 C43 14.19 43 28.38 43 43 C28.81 43 14.62 43 0 43 C0 28.81 0 14.62 0 0 Z " fill="#F9F9F9" transform="translate(306,308)"/>
<path d="M0 0 C14.19 0 28.38 0 43 0 C43 14.19 43 28.38 43 43 C28.81 43 14.62 43 0 43 C0 28.81 0 14.62 0 0 Z " fill="#030303" transform="translate(349,37)"/>
<path d="M0 0 C13.86 0 27.72 0 42 0 C42 14.19 42 28.38 42 43 C28.14 43 14.28 43 0 43 C0 28.81 0 14.62 0 0 Z " fill="#030303" transform="translate(36,37)"/>
<path d="M0 0 C13.86 0 27.72 0 42 0 C42 13.86 42 27.72 42 42 C28.14 42 14.28 42 0 42 C0 28.14 0 14.28 0 0 Z " fill="#030303" transform="translate(36,351)"/>
<path d="M0 0 C14.19 0 28.38 0 43 0 C43 4.62 43 9.24 43 14 C38.38 14 33.76 14 29 14 C29 23.57 29 33.14 29 43 C19.43 43 9.86 43 0 43 C0 28.81 0 14.62 0 0 Z " fill="#040404" transform="translate(249,379)"/>
<path d="M0 0 C9.24 0 18.48 0 28 0 C28 9.24 28 18.48 28 28 C18.76 28 9.52 28 0 28 C0 37.57 0 47.14 0 57 C-4.95 57 -9.9 57 -15 57 C-15 42.81 -15 28.62 -15 14 C-10.05 14 -5.1 14 0 14 C0 9.38 0 4.76 0 0 Z " fill="#F9F9F9" transform="translate(207,23)"/>
<path d="M0 0 C4.62 0 9.24 0 14 0 C14 13.86 14 27.72 14 42 C18.62 42 23.24 42 28 42 C28 46.95 28 51.9 28 57 C18.76 57 9.52 57 0 57 C0 52.05 0 47.1 0 42 C-4.95 42 -9.9 42 -15 42 C-15 37.38 -15 32.76 -15 28 C-10.05 28 -5.1 28 0 28 C0 18.76 0 9.52 0 0 Z " fill="#060606" transform="translate(150,365)"/>
<path d="M0 0 C14.19 0 28.38 0 43 0 C43 4.62 43 9.24 43 14 C38.38 14 33.76 14 29 14 C29 18.62 29 23.24 29 28 C24.05 28 19.1 28 14 28 C14 32.95 14 37.9 14 43 C9.38 43 4.76 43 0 43 C0 28.81 0 14.62 0 0 Z " fill="#050505" transform="translate(121,308)"/>
<path d="M0 0 C4.62 0 9.24 0 14 0 C14 4.62 14 9.24 14 14 C23.24 14 32.48 14 42 14 C42 18.62 42 23.24 42 28 C37.38 28 32.76 28 28 28 C28 37.57 28 47.14 28 57 C23.38 57 18.76 57 14 57 C14 47.43 14 37.86 14 28 C9.38 28 4.76 28 0 28 C0 18.76 0 9.52 0 0 Z " fill="#0B0B0B" transform="translate(378,365)"/>
<path d="M0 0 C4.62 0 9.24 0 14 0 C14 4.62 14 9.24 14 14 C23.24 14 32.48 14 42 14 C42 18.62 42 23.24 42 28 C32.76 28 23.52 28 14 28 C14 37.57 14 47.14 14 57 C9.38 57 4.76 57 0 57 C0 38.19 0 19.38 0 0 Z " fill="#F9F9F9" transform="translate(321,237)"/>
<path d="M0 0 C1.670625 0.061875 1.670625 0.061875 3.375 0.125 C4.41301555 2.01148044 5.42983167 3.90963656 6.4375 5.8125 C7.00597656 6.86824219 7.57445312 7.92398438 8.16015625 9.01171875 C9.47096863 12.3709389 9.56964255 13.77286867 8.375 17.125 C7.83875 17.640625 7.3025 18.15625 6.75 18.6875 C6.29625 19.161875 5.8425 19.63625 5.375 20.125 C6.10595297 26.0860475 11.22265924 30.38402812 15.6640625 33.9765625 C20.98889154 37.81225761 20.98889154 37.81225761 27.375 38.125 C29.02306974 36.86707468 29.02306974 36.86707468 30.1875 35.125 C30.909375 34.135 31.63125 33.145 32.375 32.125 C37.85432789 33.67045146 42.48929181 36.28043212 47.375 39.125 C46.92213369 43.99331281 45.79178531 46.61059226 42.375 50.125 C37.60571404 53.03559207 32.79011817 52.78638848 27.375 52.125 C19.20668507 49.79713417 12.65480002 45.75800414 6.375 40.125 C5.68664062 39.51785156 4.99828125 38.91070312 4.2890625 38.28515625 C-3.05920237 31.40143686 -9.59222736 23.10817934 -9.9375 12.75 C-9.88553407 6.4413366 -6.67679014 0.23023414 0 0 Z " fill="#070707" transform="translate(195.625,188.875)"/>
<path d="M0 0 C4.62 0 9.24 0 14 0 C14 4.62 14 9.24 14 14 C18.29 14 22.58 14 27 14 C28.11754936 19.23851264 29 23.62585403 29 29 C24.05 29 19.1 29 14 29 C14 33.62 14 38.24 14 43 C9.38 43 4.76 43 0 43 C0 38.38 0 33.76 0 29 C-4.62 29 -9.24 29 -14 29 C-14 24.05 -14 19.1 -14 14 C-9.38 14 -4.76 14 0 14 C0 9.38 0 4.76 0 0 Z " fill="#060606" transform="translate(121,208)"/>
<path d="M0 0 C4.38550615 0.60538209 8.80170905 0.95702494 13.20898438 1.36743164 C18.15898437 1.83149414 18.15898437 1.83149414 23.20898438 2.30493164 C23.20898438 11.21493164 23.20898438 20.12493164 23.20898438 29.30493164 C13.63898438 29.30493164 4.06898438 29.30493164 -5.79101562 29.30493164 C-5.79101562 24.68493164 -5.79101562 20.06493164 -5.79101562 15.30493164 C-10.41101563 15.30493164 -15.03101563 15.30493164 -19.79101562 15.30493164 C-19.79101562 10.35493164 -19.79101562 5.40493164 -19.79101562 0.30493164 C-6.11412464 -0.87864546 -6.11412464 -0.87864546 0 0 Z " fill="#050505" transform="translate(197.791015625,278.695068359375)"/>
<path d="M0 0 C9.57 0 19.14 0 29 0 C29 13.86 29 27.72 29 42 C24.38 42 19.76 42 15 42 C15 37.38 15 32.76 15 28 C10.05 28 5.1 28 0 28 C0 18.76 0 9.52 0 0 Z " fill="#F9F9F9" transform="translate(21,180)"/>
<path d="M0 0 C18.81 0 37.62 0 57 0 C57 4.62 57 9.24 57 14 C47.76 14 38.52 14 29 14 C29 18.62 29 23.24 29 28 C24.05 28 19.1 28 14 28 C14 23.38 14 18.76 14 14 C9.38 14 4.76 14 0 14 C0 9.38 0 4.76 0 0 Z " fill="#070707" transform="translate(178,9)"/>
<path d="M0 0 C4.95 0 9.9 0 15 0 C15 4.62 15 9.24 15 14 C19.62 14 24.24 14 29 14 C29 23.57 29 33.14 29 43 C24.38 43 19.76 43 15 43 C15 38.38 15 33.76 15 29 C10.05 29 5.1 29 0 29 C0 19.43 0 9.86 0 0 Z " fill="#F9F9F9" transform="translate(192,94)"/>
<path d="M0 0 C4.95 0 9.9 0 15 0 C15 4.95 15 9.9 15 15 C24.24 15 33.48 15 43 15 C43 19.62 43 24.24 43 29 C28.81 29 14.62 29 0 29 C0 19.43 0 9.86 0 0 Z " fill="#060606" transform="translate(78,279)"/>
<path d="M0 0 C9.57 0 19.14 0 29 0 C29 4.62 29 9.24 29 14 C24.38 14 19.76 14 15 14 C15 18.62 15 23.24 15 28 C5.43 28 -4.14 28 -14 28 C-14 23.38 -14 18.76 -14 14 C-9.38 14 -4.76 14 0 14 C0 9.38 0 4.76 0 0 Z " fill="#060606" transform="translate(192,379)"/>
<path d="M0 0 C9.57 0 19.14 0 29 0 C29 9.24 29 18.48 29 28 C19.43 28 9.86 28 0 28 C0 18.76 0 9.52 0 0 Z " fill="#050505" transform="translate(235,23)"/>
<path d="M0 0 C4.62 0 9.24 0 14 0 C14 4.62 14 9.24 14 14 C18.62 14 23.24 14 28 14 C28 18.62 28 23.24 28 28 C14.14 28 0.28 28 -14 28 C-14 23.38 -14 18.76 -14 14 C-9.38 14 -4.76 14 0 14 C0 9.38 0 4.76 0 0 Z " fill="#F9F9F9" transform="translate(107,237)"/>
<path d="M0 0 C4.95 0 9.9 0 15 0 C15 9.57 15 19.14 15 29 C5.43 29 -4.14 29 -14 29 C-14 24.05 -14 19.1 -14 14 C-9.38 14 -4.76 14 0 14 C0 9.38 0 4.76 0 0 Z " fill="#F8F8F8" transform="translate(363,265)"/>
<path d="M0 0 C4.95 0 9.9 0 15 0 C15 4.62 15 9.24 15 14 C19.62 14 24.24 14 29 14 C29 18.95 29 23.9 29 29 C19.43 29 9.86 29 0 29 C0 19.43 0 9.86 0 0 Z " fill="#F8F8F8" transform="translate(249,94)"/>
<path d="M0 0 C4.62 0 9.24 0 14 0 C14 4.62 14 9.24 14 14 C18.62 14 23.24 14 28 14 C28 18.95 28 23.9 28 29 C18.76 29 9.52 29 0 29 C0 19.43 0 9.86 0 0 Z " fill="#F7F7F7" transform="translate(378,322)"/>
<path d="M0 0 C14.19 0 28.38 0 43 0 C43 4.62 43 9.24 43 14 C28.81 14 14.62 14 0 14 C0 9.38 0 4.76 0 0 Z " fill="#F8F8F8" transform="translate(292,194)"/>
<path d="M0 0 C4.62 0 9.24 0 14 0 C14 4.62 14 9.24 14 14 C18.95 14 23.9 14 29 14 C29 18.62 29 23.24 29 28 C19.43 28 9.86 28 0 28 C0 18.76 0 9.52 0 0 Z " fill="#070707" transform="translate(7,123)"/>
<path d="M0 0 C4.62 0 9.24 0 14 0 C14 13.86 14 27.72 14 42 C9.38 42 4.76 42 0 42 C0 28.14 0 14.28 0 0 Z " fill="#F7F7F7" transform="translate(321,365)"/>
<path d="M0 0 C9.24 0 18.48 0 28 0 C28 9.24 28 18.48 28 28 C23.38 28 18.76 28 14 28 C14 23.38 14 18.76 14 14 C9.38 14 4.76 14 0 14 C0 9.38 0 4.76 0 0 Z " fill="#070707" transform="translate(378,351)"/>
<path d="M0 0 C4.62 0 9.24 0 14 0 C14 4.62 14 9.24 14 14 C18.62 14 23.24 14 28 14 C28 18.62 28 23.24 28 28 C18.76 28 9.52 28 0 28 C0 18.76 0 9.52 0 0 Z " fill="#F8F8F8" transform="translate(278,237)"/>
<path d="M0 0 C9.24 0 18.48 0 28 0 C28 9.24 28 18.48 28 28 C23.38 28 18.76 28 14 28 C14 23.38 14 18.76 14 14 C9.38 14 4.76 14 0 14 C0 9.38 0 4.76 0 0 Z " fill="#070707" transform="translate(392,123)"/>
<path d="M0 0 C9.24 0 18.48 0 28 0 C28 9.24 28 18.48 28 28 C23.38 28 18.76 28 14 28 C14 23.38 14 18.76 14 14 C9.38 14 4.76 14 0 14 C0 9.38 0 4.76 0 0 Z " fill="#060606" transform="translate(278,80)"/>
<path d="M0 0 C4.95 0 9.9 0 15 0 C15 9.57 15 19.14 15 29 C10.05 29 5.1 29 0 29 C0 19.43 0 9.86 0 0 Z " fill="#080808" transform="translate(363,393)"/>
<path d="M0 0 C9.57 0 19.14 0 29 0 C29 4.95 29 9.9 29 15 C19.43 15 9.86 15 0 15 C0 10.05 0 5.1 0 0 Z " fill="#F7F7F7" transform="translate(235,51)"/>
<path d="M0 0 C9.57 0 19.14 0 29 0 C29 4.95 29 9.9 29 15 C19.43 15 9.86 15 0 15 C0 10.05 0 5.1 0 0 Z " fill="#F5F5F5" transform="translate(121,51)"/>
<path d="M0 0 C9.24 0 18.48 0 28 0 C28 4.95 28 9.9 28 15 C18.76 15 9.52 15 0 15 C0 10.05 0 5.1 0 0 Z " fill="#F8F8F8" transform="translate(93,279)"/>
<path d="M0 0 C4.62 0 9.24 0 14 0 C14 9.57 14 19.14 14 29 C9.38 29 4.76 29 0 29 C0 19.43 0 9.86 0 0 Z " fill="#080808" transform="translate(392,393)"/>
<path d="M0 0 C4.62 0 9.24 0 14 0 C14 9.57 14 19.14 14 29 C9.38 29 4.76 29 0 29 C0 19.43 0 9.86 0 0 Z " fill="#070707" transform="translate(264,336)"/>
<path d="M0 0 C9.57 0 19.14 0 29 0 C29 4.62 29 9.24 29 14 C19.43 14 9.86 14 0 14 C0 9.38 0 4.76 0 0 Z " fill="#090909" transform="translate(249,322)"/>
<path d="M0 0 C4.62 0 9.24 0 14 0 C14 9.57 14 19.14 14 29 C9.38 29 4.76 29 0 29 C0 19.43 0 9.86 0 0 Z " fill="#070707" transform="translate(121,94)"/>
<path d="M0 0 C4.62 0 9.24 0 14 0 C14 9.24 14 18.48 14 28 C9.38 28 4.76 28 0 28 C0 18.76 0 9.52 0 0 Z " fill="#070707" transform="translate(121,365)"/>
<path d="M0 0 C9.24 0 18.48 0 28 0 C28 4.62 28 9.24 28 14 C18.76 14 9.52 14 0 14 C0 9.38 0 4.76 0 0 Z " fill="#F5F5F5" transform="translate(93,208)"/>
<path d="M0 0 C9.24 0 18.48 0 28 0 C28 4.62 28 9.24 28 14 C18.76 14 9.52 14 0 14 C0 9.38 0 4.76 0 0 Z " fill="#070707" transform="translate(378,151)"/>
<path d="M0 0 C3.96 0 7.92 0 12 0 C12 8.58 12 17.16 12 26 C8.04 26 4.08 26 0 26 C0 17.42 0 8.84 0 0 Z " fill="#FEFEFE" transform="translate(236,124)"/>
<path d="M0 0 C0 4.62 0 9.24 0 14 C-9.9 14 -19.8 14 -30 14 C-26.69943633 10.69943633 -22.21284885 9.08910271 -18.02929688 7.09765625 C-14.7789109 5.51606234 -12.16547382 4.14513485 -9.42578125 1.7421875 C-7 0 -7 0 0 0 Z " fill="#0C0C0C" transform="translate(264,265)"/>
<path d="M0 0 C0.33 0 0.66 0 1 0 C1 9.24 1 18.48 1 28 C-3.62 28 -8.24 28 -13 28 C-13 20.2012987 -13 20.2012987 -9.875 16.8125 C-5.52809158 11.69536545 -2.80237583 6.06668175 0 0 Z " fill="#0D0D0D" transform="translate(277,237)"/>
<path d="M0 0 C4.95 0 9.9 0 15 0 C15 4.95 15 9.9 15 15 C10.05 15 5.1 15 0 15 C0 10.05 0 5.1 0 0 Z " fill="#F6F6F6" transform="translate(306,222)"/>
<path d="M0 0 C4.95 0 9.9 0 15 0 C15 4.95 15 9.9 15 15 C10.05 15 5.1 15 0 15 C0 10.05 0 5.1 0 0 Z " fill="#F5F5F5" transform="translate(21,222)"/>
<path d="M0 0 C4.62 0 9.24 0 14 0 C14 4.95 14 9.9 14 15 C9.38 15 4.76 15 0 15 C0 10.05 0 5.1 0 0 Z " fill="#0B0B0B" transform="translate(321,407)"/>
<path d="M0 0 C4.62 0 9.24 0 14 0 C14 4.95 14 9.9 14 15 C9.38 15 4.76 15 0 15 C0 10.05 0 5.1 0 0 Z " fill="#0A0A0A" transform="translate(121,407)"/>
<path d="M0 0 C4.95 0 9.9 0 15 0 C15 4.62 15 9.24 15 14 C10.05 14 5.1 14 0 14 C0 9.38 0 4.76 0 0 Z " fill="#F4F4F4" transform="translate(363,351)"/>
<path d="M0 0 C4.62 0 9.24 0 14 0 C14 4.95 14 9.9 14 15 C9.38 15 4.76 15 0 15 C0 10.05 0 5.1 0 0 Z " fill="#0B0B0B" transform="translate(406,336)"/>
<path d="M0 0 C4.95 0 9.9 0 15 0 C15 4.62 15 9.24 15 14 C10.05 14 5.1 14 0 14 C0 9.38 0 4.76 0 0 Z " fill="#0A0A0A" transform="translate(21,294)"/>
<path d="M0 0 C4.62 0 9.24 0 14 0 C14 4.95 14 9.9 14 15 C9.38 15 4.76 15 0 15 C0 10.05 0 5.1 0 0 Z " fill="#F6F6F6" transform="translate(292,279)"/>
<path d="M0 0 C4.62 0 9.24 0 14 0 C14 4.95 14 9.9 14 15 C9.38 15 4.76 15 0 15 C0 10.05 0 5.1 0 0 Z " fill="#0A0A0A" transform="translate(406,165)"/>
<path d="M0 0 C4.62 0 9.24 0 14 0 C14 4.95 14 9.9 14 15 C9.38 15 4.76 15 0 15 C0 10.05 0 5.1 0 0 Z " fill="#F6F6F6" transform="translate(292,165)"/>
<path d="M0 0 C4.95 0 9.9 0 15 0 C15 4.62 15 9.24 15 14 C10.05 14 5.1 14 0 14 C0 9.38 0 4.76 0 0 Z " fill="#090909" transform="translate(363,123)"/>
<path d="M0 0 C4.62 0 9.24 0 14 0 C14 4.95 14 9.9 14 15 C9.38 15 4.76 15 0 15 C0 10.05 0 5.1 0 0 Z " fill="#080808" transform="translate(278,108)"/>
<path d="M0 0 C4.62 0 9.24 0 14 0 C14 4.95 14 9.9 14 15 C9.38 15 4.76 15 0 15 C0 10.05 0 5.1 0 0 Z " fill="#090909" transform="translate(121,51)"/>
<path d="M0 0 C4.95 0 9.9 0 15 0 C15.0749534 5.02187812 14.99276881 9.03615596 14 14 C9.38 14 4.76 14 0 14 C0 9.38 0 4.76 0 0 Z " fill="#0A0A0A" transform="translate(135,251)"/>
<path d="M0 0 C4.62 0 9.24 0 14 0 C14 4.62 14 9.24 14 14 C9.38 14 4.76 14 0 14 C0 9.38 0 4.76 0 0 Z " fill="#0A0A0A" transform="translate(221,393)"/>
<path d="M0 0 C4.62 0 9.24 0 14 0 C14 4.62 14 9.24 14 14 C9.38 14 4.76 14 0 14 C0 9.38 0 4.76 0 0 Z " fill="#0B0B0B" transform="translate(406,379)"/>
<path d="M0 0 C4.62 0 9.24 0 14 0 C14 4.62 14 9.24 14 14 C9.38 14 4.76 14 0 14 C0 9.38 0 4.76 0 0 Z " fill="#F3F3F3" transform="translate(392,379)"/>
<path d="M0 0 C4.62 0 9.24 0 14 0 C14 4.62 14 9.24 14 14 C9.38 14 4.76 14 0 14 C0 9.38 0 4.76 0 0 Z " fill="#F4F4F4" transform="translate(292,379)"/>
<path d="M0 0 C4.62 0 9.24 0 14 0 C14 4.62 14 9.24 14 14 C9.38 14 4.76 14 0 14 C0 9.38 0 4.76 0 0 Z " fill="#F3F3F3" transform="translate(378,365)"/>
<path d="M0 0 C4.62 0 9.24 0 14 0 C14 4.62 14 9.24 14 14 C9.38 14 4.76 14 0 14 C0 9.38 0 4.76 0 0 Z " fill="#0A0A0A" transform="translate(235,351)"/>
<path d="M0 0 C4.62 0 9.24 0 14 0 C14 4.62 14 9.24 14 14 C9.38 14 4.76 14 0 14 C0 9.38 0 4.76 0 0 Z " fill="#0A0A0A" transform="translate(321,322)"/>
<path d="M0 0 C4.62 0 9.24 0 14 0 C14 4.62 14 9.24 14 14 C9.38 14 4.76 14 0 14 C0 9.38 0 4.76 0 0 Z " fill="#F5F5F5" transform="translate(264,322)"/>
<path d="M0 0 C4.62 0 9.24 0 14 0 C14 4.62 14 9.24 14 14 C9.38 14 4.76 14 0 14 C0 9.38 0 4.76 0 0 Z " fill="#0B0B0B" transform="translate(7,265)"/>
<path d="M0 0 C4.62 0 9.24 0 14 0 C14 4.62 14 9.24 14 14 C9.38 14 4.76 14 0 14 C0 9.38 0 4.76 0 0 Z " fill="#090909" transform="translate(93,237)"/>
<path d="M0 0 C4.62 0 9.24 0 14 0 C14 4.62 14 9.24 14 14 C9.38 14 4.76 14 0 14 C0 9.38 0 4.76 0 0 Z " fill="#090909" transform="translate(349,208)"/>
<path d="M0 0 C4.62 0 9.24 0 14 0 C14 4.62 14 9.24 14 14 C9.38 14 4.76 14 0 14 C0 9.38 0 4.76 0 0 Z " fill="#090909" transform="translate(93,208)"/>
<path d="M0 0 C4.62 0 9.24 0 14 0 C14 4.62 14 9.24 14 14 C9.38 14 4.76 14 0 14 C0 9.38 0 4.76 0 0 Z " fill="#090909" transform="translate(321,194)"/>
<path d="M0 0 C4.62 0 9.24 0 14 0 C14 4.62 14 9.24 14 14 C9.38 14 4.76 14 0 14 C0 9.38 0 4.76 0 0 Z " fill="#090909" transform="translate(107,194)"/>
<path d="M0 0 C4.62 0 9.24 0 14 0 C14 4.62 14 9.24 14 14 C9.38 14 4.76 14 0 14 C0 9.38 0 4.76 0 0 Z " fill="#F5F5F5" transform="translate(178,137)"/>
<path d="M0 0 C4.62 0 9.24 0 14 0 C14 4.62 14 9.24 14 14 C9.38 14 4.76 14 0 14 C0 9.38 0 4.76 0 0 Z " fill="#F5F5F5" transform="translate(278,94)"/>
<path d="M0 0 C4.62 0 9.24 0 14 0 C14 4.62 14 9.24 14 14 C9.38 14 4.76 14 0 14 C0 9.38 0 4.76 0 0 Z " fill="#F5F5F5" transform="translate(221,94)"/>
<path d="M0 0 C4.62 0 9.24 0 14 0 C14 4.62 14 9.24 14 14 C9.38 14 4.76 14 0 14 C0 9.38 0 4.76 0 0 Z " fill="#090909" transform="translate(207,94)"/>
<path d="M0 0 C4.62 0 9.24 0 14 0 C14 4.62 14 9.24 14 14 C9.38 14 4.76 14 0 14 C0 9.38 0 4.76 0 0 Z " fill="#090909" transform="translate(150,94)"/>
<path d="M0 0 C4.62 0 9.24 0 14 0 C14 4.62 14 9.24 14 14 C9.38 14 4.76 14 0 14 C0 9.38 0 4.76 0 0 Z " fill="#F5F5F5" transform="translate(264,80)"/>
<path d="M0 0 C4.62 0 9.24 0 14 0 C14 4.62 14 9.24 14 14 C9.38 14 4.76 14 0 14 C0 9.38 0 4.76 0 0 Z " fill="#F5F5F5" transform="translate(207,80)"/>
<path d="M0 0 C4.62 0 9.24 0 14 0 C14 4.62 14 9.24 14 14 C9.38 14 4.76 14 0 14 C0 9.38 0 4.76 0 0 Z " fill="#F5F5F5" transform="translate(221,66)"/>
<path d="M0 0 C4.62 0 9.24 0 14 0 C14 4.62 14 9.24 14 14 C9.38 14 4.76 14 0 14 C0 9.38 0 4.76 0 0 Z " fill="#0A0A0A" transform="translate(278,9)"/>
<path d="M0 0 C1.98 0.99 1.98 0.99 4 2 C6.59154919 2.24029959 6.59154919 2.24029959 9.25 2.125 C10.8175 2.08375 12.385 2.0425 14 2 C14 6.29 14 10.58 14 15 C9.38 15 4.76 15 0 15 C0 10.05 0 5.1 0 0 Z " fill="#0A0A0A" transform="translate(150,279)"/>
<path d="M0 0 C13.86 0 27.72 0 42 0 C42 9.57 42 19.14 42 29 C41.67 29 41.34 29 41 29 C41 19.76 41 10.52 41 1 C32.09 1 23.18 1 14 1 C14 2.98 14 4.96 14 7 C9.25981099 5.16508812 4.63586749 3.08058541 0 1 C0 0.67 0 0.34 0 0 Z " fill="#D4D4D4" transform="translate(236,151)"/>
<path d="M0 0 C4.29 0 8.58 0 13 0 C13 1.98 13 3.96 13 6 C8.52761347 4.58192622 4.28853694 2.88695626 0 1 C0 0.67 0 0.34 0 0 Z " fill="#1E1E1E" transform="translate(236,151)"/>
</svg>
